<?xml version="1.0" encoding="utf-8"?>
<!-- Generator: Adobe Illustrator 26.0.3, SVG Export Plug-In . SVG Version: 6.00 Build 0)  -->
<svg version="1.0" id="katman_1" xmlns="http://www.w3.org/2000/svg" xmlns:xlink="http://www.w3.org/1999/xlink" x="0px" y="0px"
	 viewBox="0 0 234 154" style="enable-background:new 0 0 234 154;" xml:space="preserve">
<style type="text/css">
	.st0{fill:#15232D;}
	.st1{fill:#5BC9EE;}
	.st2{fill:#00ABE4;}
	.st3{fill:#448CBA;}
</style>
<path class="st0" d="M141.9,72.5h2.9v21.2h-2.9V72.5z"/>
<path class="st0" d="M132.8,93.8c-3.2,0-5.9-1.1-7.8-2.9c-2-1.8-3-4.7-3-7.7s1-5.7,3-7.7c2-2,4.7-2.9,7.8-2.9c2.4,0,4.1,0.3,5.9,1.4
	l-1.1,2.4c-1.5-0.8-2.9-1.1-4.7-1.1c-2.4,0-4.4,0.8-5.9,2.1c-1.4,1.4-2.3,3.5-2.3,5.7c0,2.3,0.8,4.4,2.3,5.7
	c1.5,1.4,3.5,2.1,5.9,2.1c1.8,0,3.2-0.3,4.7-1.1l1.1,2.4C136.8,93.4,135.2,93.8,132.8,93.8z"/>
<path class="st0" d="M89.1,93.8c-1.7,0-3-0.5-3.9-1.4c-0.9-0.9-1.4-2.3-1.4-3.9V73.9h2.9v4.4h4.7v2.4h-4.7v6.9c0,1.5,0.2,2.6,0.6,3
	c0.5,0.6,1.4,0.6,2.1,0.6h0.8c0.3,0,0.5-0.2,0.8-0.2h0.2l0.3,2.4h-0.2c-0.3,0-0.6,0.2-1.1,0.2C89.7,93.8,89.3,93.8,89.1,93.8z"/>
<path class="st0" d="M77.6,94c-1.7,0-3-0.5-3.9-1.4c-0.9-0.9-1.4-2.3-1.4-3.9V74h2.9v4.4h4.7v2.4h-4.7v6.9c0,1.5,0.2,2.6,0.6,3
	c0.5,0.6,1.2,0.6,2.1,0.6h0.8c0.3,0,0.5-0.2,0.8-0.2h0.2l0.3,2.4h-0.2c-0.3,0-0.8,0.2-1.1,0.2C78.2,94,77.9,94,77.6,94z"/>
<path class="st0" d="M39,81.8h4.1c1.4,0,2.6-0.3,3.3-0.8c0.8-0.6,1.2-1.4,1.2-2.3s-0.3-1.7-1.1-2.3c-0.8-0.5-1.8-0.8-3.3-0.8H39
	V81.8z M39,91h4.4c3.5,0,5.1-1.1,5.1-3.3c0-2.3-1.7-3.3-5.1-3.3H39V91z M36,93.7V73.3h7.4c2.1,0,3.9,0.5,5.1,1.5
	c1.4,1.1,2,2.4,2,3.9c0,0.9-0.3,1.8-0.8,2.6c-0.3,0.5-0.8,0.9-1.2,1.4l-0.3,0.3l0.5,0.2c0.8,0.5,1.5,0.9,2,1.7c0.6,0.9,1.1,2,1.1,3
	c0,1.8-0.8,3.3-2.1,4.4c-1.4,1.1-3.3,1.5-5.6,1.5h-8V93.7z"/>
<path class="st0" d="M173.4,93.8c-2,0-3.8-0.6-4.8-1.8c-1.2-1.2-1.7-2.9-1.7-5.1v-8.6h2.7v8.6c0,1.5,0.3,2.7,1.1,3.5
	c0.6,0.6,1.7,1.1,3,1.1c0.9,0,1.7-0.2,2.4-0.5c0.6-0.3,1.2-0.8,1.7-1.2v-0.2V78.4h2.9v15.2h-2.9v-1.1l-0.4,0.3
	c-0.5,0.3-0.9,0.5-1.4,0.6C175.1,93.7,174.3,93.8,173.4,93.8z"/>
<path class="st0" d="M191.6,80.5c-1.4,0-2.7,0.6-3.5,1.5c-1.7,2-1.7,6,0,8c0.8,0.9,2.1,1.5,3.5,1.5c0.8,0,1.5-0.2,2.2-0.5
	c0.6-0.3,1.2-0.6,1.7-1.2v-0.2v-7.5V82c-0.4-0.5-1.1-0.9-1.7-1.2C193.1,80.6,192.4,80.5,191.6,80.5z M191.3,93.8
	c-2.1,0-4.1-0.8-5.3-2.3c-2.7-3-2.7-8.4,0-11.4c1.4-1.4,3.3-2.3,5.3-2.3c0.9,0,1.6,0.2,2.4,0.5c0.5,0.2,0.9,0.3,1.4,0.6l0.4,0.3
	v-6.9h2.9v21.2h-2.9v-0.9l-0.4,0.3c-0.5,0.3-0.9,0.5-1.4,0.6C193,93.7,192.2,93.8,191.3,93.8z"/>
<path class="st0" d="M61.8,80.5c-1.2,0-2.3,0.5-3,1.2c-0.6,0.6-1.1,1.7-1.2,2.7v0.3H66v-0.3c-0.1-1.1-0.6-2.1-1.2-2.7
	C63.9,80.9,62.9,80.5,61.8,80.5z M62.4,93.8c-2.4,0-4.4-0.8-5.7-2.1c-1.4-1.4-2.1-3.5-2.1-5.9c0-2.3,0.6-4.4,2-5.7
	c1.2-1.4,3.2-2.3,5.3-2.3c2.1,0,3.9,0.8,5.3,2.3c1.4,1.4,2,3.5,2,5.9v0.5v0.5v0.1H57.8v0.3c0.1,1.2,0.6,2.1,1.5,2.9
	c0.9,0.8,2.1,1.2,3.5,1.2c2,0,3.2-0.3,4.2-1.1l1.1,2.1C66.5,93.4,64.7,93.8,62.4,93.8z"/>
<path class="st0" d="M101.3,80.5c-1.2,0-2.3,0.5-3,1.2c-0.6,0.6-1.1,1.7-1.2,2.7v0.3h8.4v-0.3c-0.2-1.1-0.6-2.1-1.2-2.7
	C103.5,80.9,102.5,80.5,101.3,80.5z M102,93.8c-2.4,0-4.4-0.8-5.7-2.1c-1.4-1.4-2.1-3.5-2.1-5.9c0-2.3,0.6-4.4,2-5.7
	c1.2-1.4,3.2-2.3,5.3-2.3c2.1,0,3.9,0.8,5.3,2.3c1.4,1.4,2,3.5,2,5.9v0.5v0.5v0.1H97.2v0.3c0.2,1.2,0.8,2.1,1.5,2.9
	c0.9,0.8,2.1,1.2,3.5,1.2c2,0,3.2-0.3,4.2-1.1l1.1,2.1c-0.9,0.6-1.7,0.9-2.7,1.2C104,93.8,103.1,93.8,102,93.8z"/>
<path class="st0" d="M155.9,80.6c-1.4,0-2.7,0.6-3.5,1.5c-1.7,2-1.7,6,0,8c0.8,0.9,2.1,1.5,3.5,1.5c1.3,0,2.7-0.6,3.5-1.5
	c1.7-2,1.7-6,0-8C158.4,81.1,157.2,80.6,155.9,80.6z M155.9,94c-2.1,0-4.2-0.8-5.6-2.3c-2.9-3-2.9-8.6,0-11.4
	c1.3-1.4,3.3-2.3,5.6-2.3c2.1,0,4.2,0.8,5.6,2.3c2.9,3,2.9,8.6,0,11.4C159.9,93.2,158,94,155.9,94z"/>
<path class="st0" d="M115.1,79.4l-0.5,0.3v-1.4h-2.9v15.2h2.9V83.2c0.6-1.5,2.3-2.4,4.4-2.6c0.1-0.9,0.3-1.8,0.4-2.6
	C117.8,78.1,116.1,78.7,115.1,79.4z"/>
<path class="st1" d="M87.3,69.4C83,65.8,80,66.8,78.8,67c-2.6,0.5-5,3.9-5,4.1c3.8-5.4,9.3-3.2,11.7,0.3c1.1-1.5,18.3-15,33.3,0.9
	l0.2,0.1h5c-1.5-1.8-3.6-4.2-6.3-5.9C111,62,99,59.6,87.3,69.4z"/>
<path class="st2" d="M129.9,68.8c-3.9-5.1-12.8-8.6-17.7-6.9c4.5-0.9,13.2,5.1,14,6.9H129.9C129,67.4,130.1,68.9,129.9,68.8z"/>
<path class="st3" d="M135.3,67.1c-2.7-4.8-10.4-6.9-13.7-5.9c3-0.5,9,2.9,11,5.9h-0.3C132.8,67.1,134.7,67,135.3,67.1
	C135.3,67.1,134.7,66.1,135.3,67.1z"/>
</svg>
