<?xml version="1.0" encoding="utf-8"?>
<!-- Generator: Adobe Illustrator 26.0.3, SVG Export Plug-In . SVG Version: 6.00 Build 0)  -->
<svg version="1.0" id="katman_1" xmlns="http://www.w3.org/2000/svg" xmlns:xlink="http://www.w3.org/1999/xlink" x="0px" y="0px"
	 viewBox="0 0 600 450" style="enable-background:new 0 0 600 450;" xml:space="preserve">
<style type="text/css">
	.st0{filter:url(#Adobe_OpacityMaskFilter);}
	.st1{fill-rule:evenodd;clip-rule:evenodd;fill:#FFFFFF;}
	.st2{mask:url(#mask-2_00000097472609759060412020000010207519615610252723_);fill:#EB764B;}
	.st3{fill:#4DB695;}
	.st4{fill:#F6C949;}
	.st5{fill:#45AEE2;}
	.st6{filter:url(#Adobe_OpacityMaskFilter_00000152967066808363212050000016417604770506720898_);}
	.st7{mask:url(#mask-4_00000018223641907742577050000011246936600198349215_);fill:#45AEE2;}
	.st8{filter:url(#Adobe_OpacityMaskFilter_00000093895609105504385720000006600705655928247982_);}
	.st9{mask:url(#mask-6_00000172436985988656083050000001908610821740242869_);fill:#F6C949;}
</style>
<g id="ChainX-Logo" transform="translate(40.000000, 14.000000)">
	<g id="编组-14">
		<g id="Clipped" transform="translate(-0.000000, -0.000000)">
			<defs>
				<filter id="Adobe_OpacityMaskFilter" filterUnits="userSpaceOnUse" x="67.2" y="173" width="48.6" height="48.7">
					<feColorMatrix  type="matrix" values="1 0 0 0 0  0 1 0 0 0  0 0 1 0 0  0 0 0 1 0"/>
				</filter>
			</defs>
			
				<mask maskUnits="userSpaceOnUse" x="67.2" y="173" width="48.6" height="48.7" id="mask-2_00000097472609759060412020000010207519615610252723_">
				<g class="st0">
					<polygon id="path-1_00000123421139831449236340000005476436650817981073_" class="st1" points="67.2,173 115.8,173 
						115.8,221.6 67.2,221.6 					"/>
				</g>
			</mask>
			<path id="路径" class="st2" d="M111.3,195.1l-12.2-12.2c-0.2-0.2-0.6-0.2-0.9,0l-4.8,4.8c-0.2,0.2-0.2,0.6,0,0.9l12.1,12.1
				c3,3,3,7.9,0,10.8c-2.9,2.8-7.6,2.8-10.5-0.1l-17.6-17.6c-2.9-2.9-2.9-7.5-0.1-10.5c2.9-3,7.8-2.9,10.8,0l1.8,1.8
				c0.2,0.2,0.6,0.2,0.9,0l4.8-4.8c0.2-0.2,0.2-0.6,0-0.9l-1.9-1.9c-6.1-6.1-15.9-6.1-22,0c-6.1,6.1-6.1,15.9,0,22l17.6,17.6
				c6.1,6.1,15.9,6.1,22,0S117.3,201.2,111.3,195.1"/>
		</g>
		<g id="编组-10" transform="translate(0.000000, 0.000067)">
			<path id="路径_00000016061480089579515030000017915678824828976821_" class="st3" d="M139.4,177.5c-6.1-6.1-15.9-6.1-22,0
				l-11.9,11.9l5.7,5.7c0,0,0,0,0,0l11.9-11.9c2.9-2.9,7.6-2.9,10.5,0c2.9,2.9,2.9,7.6,0,10.6l-1.9,1.9c-0.2,0.2-0.2,0.6,0,0.9
				l4.8,4.8c0.2,0.2,0.6,0.2,0.9,0l1.9-1.9C145.5,193.4,145.5,183.6,139.4,177.5"/>
			<path id="路径_00000111877261212838482140000001149650201133572257_" class="st3" d="M129.2,199.2c-0.2-0.2-0.6-0.2-0.9,0
				l-12.2,12.2c-0.5,0.5-1.2,1-1.8,1.3c-2.8,1.5-6.4,1-8.7-1.3c0,0,0,0,0,0c-2.9-2.9-2.9-7.6,0-10.5l-5.7-5.7
				c-4.7,4.8-5.8,11.8-3.1,17.6c0.7,1.6,1.8,3.1,3.1,4.4c1.7,1.7,3.6,2.9,5.7,3.6c1.7,0.6,3.5,0.9,5.3,0.9c4,0,8-1.5,11-4.5
				l12.2-12.2c0.2-0.2,0.2-0.6,0-0.9L129.2,199.2z"/>
			<path id="路径_00000152253357813988307860000002642519830295465133_" class="st4" d="M139.4,223.3l-11.9-11.9l-5.7,5.7
				l11.9,11.9c2.9,2.9,2.9,7.5,0.1,10.5c-2.9,3-7.8,2.9-10.8,0l-1.8-1.8c-0.2-0.2-0.6-0.2-0.9,0l-4.8,4.8c-0.2,0.2-0.2,0.6,0,0.9
				l1.7,1.7c6.1,6.1,16.2,6.2,22.2,0.1c3-3,4.5-7,4.5-10.9C144,230.3,142.5,226.3,139.4,223.3"/>
			<path id="路径_00000107571253406592726910000000605357593998167477_" class="st4" d="M117.8,235c0.2-0.2,0.2-0.6,0-0.9
				L105.6,222c-0.5-0.5-1-1.2-1.3-1.8c-1.5-2.8-1-6.4,1.3-8.7l0,0c2.9-2.9,7.6-2.9,10.5,0l5.7-5.7c-4.8-4.7-11.8-5.8-17.6-3
				c-1.6,0.7-3.1,1.8-4.4,3.1c-1.7,1.7-2.9,3.6-3.6,5.7c-0.6,1.7-0.9,3.5-0.9,5.3c0,4,1.5,8,4.5,11l12.2,12.2c0.2,0.2,0.6,0.2,0.9,0
				L117.8,235z"/>
			<path id="形状" class="st5" d="M114.9,211.4c-0.2-0.5-0.3-0.9-0.6-1.4c-0.7-1.6-1.8-3.1-3.1-4.4c-1.3-1.3-2.8-2.3-4.4-3.1
				c-0.4-0.2-0.9-0.4-1.3-0.5c-5.5-2-11.9-0.8-16.3,3.6l5.7,5.7c0.5-0.5,1.1-1,1.8-1.3c2.8-1.5,6.4-1,8.7,1.3l0,0
				c2.4,2.4,2.8,6,1.3,8.8c-0.3,0.6-0.8,1.2-1.3,1.7l5.7,5.7C115.6,223.2,116.9,216.9,114.9,211.4 M82.8,223.6l6.5-6.5l-5.7-5.7
				l-6.5,6.5c-0.2,0.2-0.2,0.6,0,0.9l4.8,4.8C82.2,223.8,82.6,223.8,82.8,223.6"/>
			<g id="Clipped_00000164489634079850766620000011158053714201604755_" transform="translate(-0.000000, 16.944763)">
				<defs>
					
						<filter id="Adobe_OpacityMaskFilter_00000000912931943635507130000003548601071230797457_" filterUnits="userSpaceOnUse" x="67.2" y="204.3" width="38.4" height="28.6">
						<feColorMatrix  type="matrix" values="1 0 0 0 0  0 1 0 0 0  0 0 1 0 0  0 0 0 1 0"/>
					</filter>
				</defs>
				
					<mask maskUnits="userSpaceOnUse" x="67.2" y="204.3" width="38.4" height="28.6" id="mask-4_00000018223641907742577050000011246936600198349215_">
					<g style="filter:url(#Adobe_OpacityMaskFilter_00000000912931943635507130000003548601071230797457_);">
						<polygon id="path-3_00000095337219314158307340000014235107124832951427_" class="st1" points="67.2,204.3 105.6,204.3 
							105.6,232.8 67.2,232.8 						"/>
					</g>
				</mask>
				<path id="路径_00000105407798687388472190000009350215694075675296_" class="st7" d="M88,222.6c-2.9,2.9-7.6,2.9-10.5,0
					c-2.9-2.9-2.9-7.6,0-10.5l1.9-1.9c0.2-0.2,0.2-0.6,0-0.9l-4.8-4.8c-0.2-0.2-0.6-0.2-0.9,0l-1.9,1.9c-6.1,6.1-6.1,15.9,0,22
					c3,3,7,4.6,11,4.5c4,0,8-1.5,11-4.5l11.9-11.9l-5.7-5.7L88,222.6z"/>
			</g>
		</g>
	</g>
	<path id="形状_00000099626484096994672150000016120644394360903827_" d="M201.8,241.5c-4.6,3-9.9,4.5-16.1,4.5
		c-6,0-11.1-1.3-15.5-3.9c-4.4-2.6-7.8-6.3-10.2-11.1c-2.4-4.8-3.6-10.5-3.6-17c0-6.5,1.2-12.2,3.6-17c2.4-4.8,5.8-8.5,10.2-11.1
		c4.4-2.6,9.5-3.9,15.4-3.9c6.2,0,11.4,1.3,15.7,3.9c3.8,2.3,6.7,5.7,8.6,10c0.3,0.8,0,1.6-0.7,2l-6.2,2.8c-1,0.5-2.2,0-2.7-1.1
		c-1.2-2.7-2.8-4.8-4.7-6.2c-2.4-1.7-5.5-2.6-9.3-2.6c-5.8,0-10.5,2.1-14,6.2c-3.5,4.1-5.2,9.8-5.2,17.1c0,7.3,1.7,13.1,5,17.1
		c3.3,4.1,7.9,6.1,13.8,6.1c4,0,7.4-1,10.1-3c2.3-1.7,4-4,5.3-7c0.4-1,1.5-1.5,2.5-1.2l6.3,2.1c0.8,0.3,1.2,1.2,0.9,2
		C208.9,234.9,205.9,238.7,201.8,241.5 M257.2,201.5c3.3,3,4.9,7.3,4.9,13V243c0,1.1-0.9,2-2,2h-6c-1.1,0-2-0.9-2-2v-25.3
		c0-8.3-3.4-12.4-10.1-12.4c-3.5,0-6.5,1.2-9,3.7c-2.5,2.4-3.8,6.2-3.8,11.2V243c0,1.1-0.9,2-2,2h-6c-1.1,0-2-0.9-2-2v-64.2
		c0-1.1,0.9-2,2-2h6c1.1,0,2,0.9,2,2v26.7c1.6-2.9,3.7-5,6.3-6.4c2.6-1.4,5.6-2.1,9-2.1C249.7,197,253.9,198.5,257.2,201.5
		 M296.9,235.9c2.6-1.6,3.9-3.8,3.9-6.5v-5.6l-10.3,2.1c-3.3,0.6-5.7,1.5-7.3,2.6c-1.6,1.1-2.4,2.6-2.4,4.5c0,1.8,0.6,3.1,1.8,4
		c1.2,0.9,3,1.4,5.2,1.4C291.4,238.3,294.3,237.5,296.9,235.9 M317.6,240l-0.3,3.6c-0.1,0.8-0.6,1.5-1.4,1.8
		c-1.4,0.4-2.9,0.6-4.5,0.6c-2.7,0-4.8-0.5-6.5-1.6c-1.6-1.1-2.7-2.9-3.2-5.4c-1.4,2.2-3.6,3.9-6.4,5.1c-2.8,1.2-6,1.8-9.5,1.8
		c-4.6,0-8.3-1.1-11.1-3.2c-2.8-2.1-4.2-5.2-4.2-9.1c0-3.7,1.5-6.8,4.6-9.4c3.1-2.5,7.7-4.3,13.7-5.4l10.3-1.8c1-0.2,1.7-1,1.7-2
		v-0.8c0-2.9-0.8-5.2-2.5-6.8c-1.7-1.7-4-2.5-7.1-2.5c-5.4,0-9.2,2.2-11.3,6.5c-0.5,1-1.7,1.5-2.8,1l-3.9-2.1
		c-1.4-0.7-1.7-1.8-1.4-2.7c1.3-3,3.4-5.4,6.3-7.3c3.5-2.2,7.8-3.3,12.9-3.3c6.1,0,10.9,1.4,14.5,4.2c3.6,2.8,5.4,7,5.4,12.4V235
		c0,1.2,0.3,2.1,0.8,2.6c0.5,0.6,1.4,0.8,2.7,0.8c0.6,0,1.2,0,1.7-0.1C317,238.3,317.7,239.1,317.6,240 M331.6,245h-6
		c-1.1,0-2-0.9-2-2v-43c0-1.1,0.9-2,2-2h6c1.1,0,2,0.9,2,2v43C333.6,244.1,332.7,245,331.6,245 M323.7,188.4
		c-1.2-1.1-1.8-2.7-1.8-4.7c0-2,0.6-3.5,1.8-4.6c1.2-1.1,2.9-1.6,5-1.6c2.1,0,3.8,0.5,4.9,1.6c1.2,1.1,1.7,2.6,1.7,4.6
		c0,2-0.6,3.6-1.7,4.7c-1.2,1.1-2.8,1.6-4.9,1.6C326.5,190,324.8,189.5,323.7,188.4 M383.7,201.5c3.3,3,4.9,7.3,4.9,13v29
		c0,0.8-0.7,1.5-1.5,1.5H380c-0.8,0-1.5-0.7-1.5-1.5v-25.8c0-8.3-3.4-12.4-10.1-12.4c-3.5,0-6.5,1.2-9,3.6
		c-2.5,2.4-3.8,6.1-3.8,11.2v23.5c0,0.8-0.7,1.5-1.5,1.5h-7.1c-0.8,0-1.5-0.7-1.5-1.5v-44.1c0-0.8,0.7-1.5,1.5-1.5h6.1
		c0.8,0,1.4,0.6,1.5,1.4l0.4,6.4c1.6-3,3.7-5.1,6.5-6.6c2.8-1.4,5.9-2.2,9.4-2.2C376.1,197,380.4,198.5,383.7,201.5"/>
	<g id="Clipped_00000015345838509919914540000002936550971270235023_" transform="translate(118.612555, 2.675433)">
		<defs>
			
				<filter id="Adobe_OpacityMaskFilter_00000132773001988444829640000017423813032223453371_" filterUnits="userSpaceOnUse" x="278.4" y="177.8" width="56.4" height="64.7">
				<feColorMatrix  type="matrix" values="1 0 0 0 0  0 1 0 0 0  0 0 1 0 0  0 0 0 1 0"/>
			</filter>
		</defs>
		
			<mask maskUnits="userSpaceOnUse" x="278.4" y="177.8" width="56.4" height="64.7" id="mask-6_00000172436985988656083050000001908610821740242869_">
			<g style="filter:url(#Adobe_OpacityMaskFilter_00000132773001988444829640000017423813032223453371_);">
				<polygon id="path-5_00000161627216735696844470000016598050962166677921_" class="st1" points="278.4,177.8 334.8,177.8 
					334.8,242.5 278.4,242.5 				"/>
			</g>
		</mask>
		<path id="路径_00000027605604130939053580000012321392050775725722_" class="st9" d="M334.4,239.3l-21-30l19.8-28.3
			c0.9-1.4,0-3.2-1.7-3.2l-8.7,0.1c-0.7,0-1.3,0.3-1.7,0.9L306.6,200L292,178.7c-0.4-0.5-1-0.9-1.7-0.9l-8.7-0.1
			c-1.7,0-2.6,1.8-1.7,3.2l19.8,28.3l-21,30c-1,1.4,0,3.2,1.7,3.2l8.8-0.2c0.7,0,1.3-0.3,1.6-0.9l15.7-22.8l15.7,22.8
			c0.4,0.5,1,0.9,1.6,0.9l8.8,0.2C334.4,242.5,335.4,240.6,334.4,239.3"/>
	</g>
</g>
</svg>
