<svg id="Layer_1" data-name="Layer 1" xmlns="http://www.w3.org/2000/svg" width="305.19" height="63.53" viewBox="0 0 305.19 63.53"><title>Mobelix logo - Brandlogos.net</title><path d="M521.43,387.18,536,366.85a2.25,2.25,0,0,0-.64-3.49,2.64,2.64,0,0,0-3.81.64l-13.34,18.74,3.18,4.44ZM512.22,391l-14.61,20.33a2.25,2.25,0,0,0,.64,3.49c.64.32,1.27.64,1.59.32a2.39,2.39,0,0,0,2.22-1.27l13.34-18.74L512.22,391ZM536,411.32a2.25,2.25,0,0,1-.64,3.49,2.38,2.38,0,0,1-1.59.32h-.32a2.39,2.39,0,0,1-2.22-1.27L497.6,366.21a2.25,2.25,0,0,1,.64-3.49,3,3,0,0,1,3.81,1l34,47.65Zm-257.62-48.6a2.85,2.85,0,0,0-2.86,2.86v47a2.86,2.86,0,1,0,5.72,0V365.26a2.8,2.8,0,0,0-2.86-2.54Zm98.47,22.56a12.22,12.22,0,0,0,3.81-9.21,13.42,13.42,0,0,0-13.34-13.34h-6.67v5.4h6.67a7.62,7.62,0,1,1,0,15.25h-7v5.4h9.21a10.48,10.48,0,0,1,0,21h-9.21v5.4h9.21a15.73,15.73,0,0,0,15.88-15.88,14.64,14.64,0,0,0-8.58-14Zm-21.28-22.56c-2.22,0-3.18,1.27-3.18,2.86v47a2.59,2.59,0,0,0,2.86,2.54h2.86V362.72Zm44.15,0c-2.22,0-3.18,1.27-3.18,2.86v47a2.59,2.59,0,0,0,2.86,2.54h2.86V362.72h-2.54Zm-74-10.48a3.18,3.18,0,1,0,0,6.35,3,3,0,0,0,3.18-3.18C328.61,353.51,327.34,352.23,325.75,352.23Zm0,0a3.18,3.18,0,1,0,3.18,3.18A3,3,0,0,0,325.75,352.23Zm-18.43,0a3.18,3.18,0,1,0,3.18,3.18C310.82,353.51,309.23,352.23,307.32,352.23Zm0,0a3.18,3.18,0,1,0,3.18,3.18A3,3,0,0,0,307.32,352.23Zm9.21,10.17a26.68,26.68,0,1,0,26.68,26.68,26.64,26.64,0,0,0-26.68-26.68Zm0,5.4q1,0,2.09.1t2.07.31q1,.2,2,.51t2,.7q1,.4,1.89.89t1.79,1.07q.87.58,1.68,1.24t1.55,1.4q.74.74,1.4,1.55t1.24,1.68q.58.87,1.07,1.79t.89,1.89q.4,1,.7,2t.51,2q.2,1,.31,2.07t.1,2.09q0,1-.1,2.09t-.31,2.07q-.2,1-.51,2t-.7,2q-.4,1-.89,1.89t-1.07,1.79q-.58.87-1.24,1.68t-1.4,1.55q-.74.74-1.55,1.4t-1.68,1.24q-.87.58-1.79,1.07t-1.89.89q-1,.4-2,.7t-2,.51q-1,.2-2.07.31t-2.09.1q-1,0-2.09-.1t-2.07-.31q-1-.2-2-.51t-2-.7q-1-.4-1.89-.89t-1.79-1.07q-.87-.58-1.68-1.24t-1.55-1.4q-.74-.74-1.4-1.55t-1.24-1.68q-.58-.87-1.07-1.79t-.89-1.89q-.4-1-.7-2t-.51-2q-.2-1-.31-2.07t-.1-2.09q0-1,.1-2.09t.31-2.07q.2-1,.51-2t.7-2q.4-1,.89-1.89t1.07-1.79q.58-.87,1.24-1.68t1.4-1.55q.74-.74,1.55-1.4t1.68-1.24q.87-.58,1.79-1.07t1.89-.89q1-.4,2-.7t2-.51q1-.2,2.07-.31t2.09-.1M273,369.71l-16.84,36.85L239.66,370v13l14,30.81a22158.67,22158.67,0,0,0,.64.64l.32.32a.31.31,0,0,1,.32.32h2.54a.31.31,0,0,0,.32-.32l.32-.32a13172.72,13172.72,0,0,0,.64-.64L273,382.73v-13Zm-38.76-7a2.85,2.85,0,0,0-2.86,2.86v47a2.86,2.86,0,1,0,5.72,0V365.26a3.37,3.37,0,0,0-2.86-2.54ZM449.32,410h18.74a2.86,2.86,0,1,1,0,5.72H449.32Zm-5.4,5.4a2.85,2.85,0,0,1-2.86-2.86V365.26a2.86,2.86,0,0,1,5.72,0v50.19Zm-39.39-29.23h16.2a2.86,2.86,0,1,1,0,5.72h-16.2Zm0,23.82h22.24a2.86,2.86,0,0,1,0,5.72H404.53Zm0-47.33h22.24a2.86,2.86,0,0,1,0,5.72H404.53Zm79.1,52.73a2.85,2.85,0,0,1-2.86-2.86V365.26a2.86,2.86,0,0,1,5.72,0v47.33A2.84,2.84,0,0,1,483.62,415.45Z" transform="translate(-231.4 -352.23)" style="fill:#32a7cb"/></svg>