<?xml version="1.0" encoding="utf-8"?>
<!-- Generator: Adobe Illustrator 26.0.3, SVG Export Plug-In . SVG Version: 6.00 Build 0)  -->
<svg version="1.0" id="katman_1" xmlns="http://www.w3.org/2000/svg" xmlns:xlink="http://www.w3.org/1999/xlink" x="0px" y="0px"
	 viewBox="0 0 600 450" style="enable-background:new 0 0 600 450;" xml:space="preserve">
<style type="text/css">
	.st0{fill:#37474F;}
	.st1{fill:#E7216C;}
</style>
<g transform="translate(.114 .006)">
	<path class="st0" d="M455.8,236.6h-4c-0.4,0-0.8,0.3-1,0.7l-4.1,11.1c-0.1,0.4-0.4,0.4-0.5,0l-4.2-11.1c-0.2-0.4-0.6-0.7-1-0.7h-4
		c-0.3,0-0.5,0.2-0.5,0.4c0,0.1,0,0.2,0.1,0.3l6.9,17.2c0.1,0.4,0.4,0.7,0.8,0.7h4.4c0.4,0,0.7-0.3,0.8-0.7l6.9-17.2
		c0.1-0.2,0-0.5-0.2-0.6C456,236.6,455.9,236.6,455.8,236.6L455.8,236.6L455.8,236.6z"/>
	<path class="st0" d="M493.6,236.6L493.6,236.6c1.5,0,2.7,1.2,2.7,2.7v13.1c0,1.5-1.2,2.7-2.7,2.7h0c-1.5,0-2.7-1.2-2.7-2.7v-13.1
		C490.9,237.8,492.1,236.6,493.6,236.6z"/>
	<path class="st0" d="M503.1,229.4L503.1,229.4c1.5,0,2.7,1.2,2.7,2.7v20.3c0,1.5-1.2,2.7-2.7,2.7h0c-1.5,0-2.7-1.2-2.7-2.7v-20.3
		C500.3,230.6,501.5,229.4,503.1,229.4z"/>
	<path class="st0" d="M493.6,227.9c-1.7,0-3.1,1.3-3.2,3c0,1.7,1.3,3.1,3,3.2c1.7,0,3.1-1.3,3.2-3
		C496.7,229.4,495.3,228,493.6,227.9z M465.5,236.3c-1.2,0-2.3,0.2-3.4,0.7c-1.1,0.4-2,1.1-2.8,1.9c-0.9,0.9-1.5,1.9-2,3
		c-0.5,1.2-0.7,2.6-0.7,3.9c0,1.4,0.2,2.8,0.8,4.1c0.5,1.1,1.2,2.2,2.1,3c1.8,1.7,4.1,2.6,6.5,2.5c3.1,0,5.7-1.3,7.3-3.6
		c0-0.1,0.1-0.2,0.2-0.3c0.1-0.1,0-0.3-0.1-0.4c0,0,0,0,0,0l-3.5-1.7c-0.2-0.1-0.4-0.1-0.5,0.1c-0.1,0.1-0.1,0.2-0.2,0.2
		c-0.7,0.8-1.8,1.2-3.1,1.2c-2,0-3.7-1.3-4.2-3.1c0,0-0.1-0.6,0.6-0.6h11.4c0.4,0,0.7-0.3,0.7-0.7l0,0v-1c0-2.9-0.8-5.2-2.4-6.9
		S468.2,236.3,465.5,236.3L465.5,236.3L465.5,236.3z M468.6,243.7h-6.2c-0.7,0-0.5-0.6-0.5-0.6c0.2-0.5,0.5-1,0.9-1.4
		c0.7-0.7,1.7-1.1,2.7-1.1c1.2,0,2.2,0.3,2.8,1c0.4,0.4,0.7,0.9,0.8,1.5C469.2,243.1,469.3,243.7,468.6,243.7L468.6,243.7z
		 M527.8,236.6h-4c-0.4,0-0.8,0.3-1,0.7l-4.2,11.1c-0.1,0.4-0.4,0.4-0.5,0l-4.2-11.1c-0.2-0.4-0.6-0.7-1-0.7h-4
		c-0.3,0-0.5,0.2-0.5,0.4c0,0.1,0,0.2,0.1,0.3l6.4,16.3c0.3,0.7,0.5,1.4,0.7,2.1c0,0.6-0.2,1.1-0.6,1.5c-0.3,0.4-0.7,0.7-1.3,0.7
		c-0.8,0-1.5-0.3-2.2-0.8c-0.2-0.2-0.5-0.2-0.7,0c-0.1,0.1-0.1,0.1-0.1,0.2l-1.2,3.2c-0.1,0.3,0,0.7,0.3,0.9c1.2,0.8,2.6,1.3,4,1.3
		c2.7,0,5.1-1.6,6.1-4l1.1-2.8l0.5-1.4c1.1-2.9,5.6-14.3,6.7-17.2c0.1-0.2,0.1-0.5-0.1-0.6C528.1,236.6,527.9,236.6,527.8,236.6
		C527.8,236.6,527.8,236.6,527.8,236.6z M487.5,236.3c-0.8,0.1-1.7,0.4-2.4,0.8c-0.7,0.4-1.4,0.9-2,1.5c-0.3,0.2-0.5,0.2-0.5-0.2
		v-1.1c0-0.4-0.3-0.6-0.6-0.6h-4.2c-0.4,0-0.6,0.3-0.6,0.6v17.3c0,0.4,0.3,0.6,0.6,0.6h4.2c0.4,0,0.6-0.3,0.6-0.6v-7.4
		c0-1.8,0.4-3.2,1.1-4.3c0.8-1.1,1.9-1.6,3.4-1.6h0.5c0.3,0,0.5-0.3,0.5-0.6l0-3.6C488.1,236.6,487.9,236.3,487.5,236.3
		C487.5,236.3,487.5,236.3,487.5,236.3L487.5,236.3z"/>
	<path class="st0" d="M438.4,258.9h16.2c0.5,0,1,0.4,1,1l0,0c0,0.5-0.4,1-1,1h-16.2c-0.5,0-1-0.4-1-1l0,0
		C437.4,259.3,437.9,258.9,438.4,258.9z"/>
	<path class="st0" d="M451.8,202.6c1.5,1.7,2.3,4.1,2.3,7.1c0,3-0.8,5.4-2.3,7.1c-1.5,1.7-3.6,2.6-6.2,2.6c-1.3,0-2.7-0.3-3.8-1
		c-1.1-0.6-1.9-1.5-2.5-2.6l-0.2,3.2h-2.6v-27.1h3v11.4c0.6-1,1.5-1.8,2.5-2.4c1.1-0.6,2.4-0.9,3.7-0.9
		C448.3,200,450.3,200.8,451.8,202.6L451.8,202.6L451.8,202.6z M449.6,214.8c1-1.3,1.6-3,1.6-5.1c0-2.2-0.5-3.9-1.6-5.1
		c-1-1.3-2.5-1.9-4.3-1.9c-1.8,0-3.2,0.6-4.3,1.9c-1.1,1.2-1.6,2.9-1.6,5v0.5c0,2.1,0.5,3.7,1.6,5c1.1,1.2,2.5,1.9,4.3,1.9
		C447.1,216.7,448.6,216,449.6,214.8L449.6,214.8L449.6,214.8z M464.6,222c-0.7,1.8-1.5,3-2.4,3.8c-0.9,0.7-2,1.1-3.5,1.1
		c-0.8,0-1.6-0.1-2.4-0.4c-0.7-0.3-1.2-0.7-1.7-1.2l1-2.5c0.7,1,1.8,1.5,3,1.5c0.7,0,1.4-0.2,1.9-0.7c0.6-0.4,1-1.2,1.5-2.4l1-2.4
		l-7.8-18.5h3.4l4.6,12.1l1.2,3.3l1.3-3.7l4.3-11.7h3.2L464.6,222z"/>
	<path class="st1" d="M76.3,206.8c6.9-13.1,20.6-22,36.4-22c22.7,0,41.2,18.5,41.2,41.2c0,3.7-0.5,7.4-1.5,11
		c-4.2-3.3-7.3-8-9.6-11.3c-0.6-0.9-1.1-1.7-1.6-2.3c-0.5-0.6-1-1.4-1.5-2.3c-4.4-6.7-12.5-19-26.9-19c-7.2,0-13.9,3.1-18.3,8.6
		c-1.5,1.9-1.2,4.7,0.7,6.3s4.7,1.2,6.3-0.7l0,0c3.7-4.6,8.7-5.3,11.3-5.3c3.7,0,6.9,1.4,9.7,3.5c0.2,0.3,0.3,0.5,0.5,0.7
		c4.7,5.2,6,11.1,3.6,16.5c-2.4,5.4-8.1,9.2-13.8,9.2c-10.8,0-18.9-12.8-21.5-17l-0.5-0.7C88.7,219.8,83.8,212,76.3,206.8
		C76.3,206.8,76.3,206.8,76.3,206.8z M136.1,231.7c-0.3,1.3-0.8,2.5-1.3,3.7c-3.8,8.7-12.7,14.5-22,14.5
		c-15.8,0-25.8-15.9-29.1-21.2l-0.5-0.7c-1.6-2.6-5.3-8.4-10.3-12.5c-0.9,3.4-1.4,7-1.4,10.5c0,22.7,18.5,41.2,41.2,41.2
		c15.1,0,29-8.3,36.2-21.6C143,241.6,138.9,235.9,136.1,231.7C136.1,231.7,136.1,231.7,136.1,231.7z"/>
	<path class="st0" d="M196.6,199.7c-8.2,0-14.2,3.5-17.6,10.2c-1.7,3.3-2.6,6.6-2.6,10v15.4c0,3.3,0.9,6.7,2.5,9.9
		c3.4,6.7,9.4,10.2,17.6,10.2c8.2,0,14.2-3.5,17.6-10.2c1.7-3.3,2.5-6.6,2.5-9.9v-15.4c0-3.3-0.8-6.7-2.5-9.9
		C210.8,203.2,204.7,199.7,196.6,199.7z M185.9,219.8c0-2,0.5-4,1.4-5.7c1.8-3.4,4.7-5,9.3-5c4.5,0,7.5,1.6,9.2,4.9
		c0.9,1.8,1.5,3.8,1.5,5.8v15.4c0,2-0.5,4-1.5,5.7c-1.7,3.4-4.7,4.9-9.3,4.9c-4.6,0-7.5-1.6-9.2-4.9c-1-1.8-1.5-3.7-1.5-5.7
		C185.9,235.2,185.9,219.8,185.9,219.8z M411.3,209.9c-3.4-6.7-9.5-10.2-17.6-10.2s-14.2,3.5-17.6,10.2c-1.7,3.3-2.6,6.6-2.6,9.9
		v15.4c0,3.3,0.9,6.7,2.5,9.9c3.4,6.7,9.4,10.2,17.6,10.2s14.2-3.5,17.6-10.2c1.7-3.3,2.5-6.6,2.5-9.9v-15.4
		C413.8,216.5,412.9,213.2,411.3,209.9L411.3,209.9z M382.9,219.8c0-2,0.5-4,1.4-5.7c1.8-3.4,4.7-5,9.3-5c4.5,0,7.5,1.6,9.2,4.9
		c0.9,1.8,1.4,3.8,1.5,5.8v15.4c0,2-0.5,4-1.5,5.7c-1.7,3.4-4.7,4.9-9.3,4.9c-4.6,0-7.5-1.6-9.2-4.9c-1-1.8-1.5-3.7-1.5-5.7
		L382.9,219.8L382.9,219.8L382.9,219.8z M245.5,199.7c-5.7,0-10.4,1.7-13.8,5c-0.5-0.8-1-1.5-1.6-2.2c0,0-0.4-0.4-0.5-0.6
		c-0.8-0.7-1.8-1-2.8-1c-2.5,0-4.6,2.1-4.6,4.6c0,1,0.5,2,0.8,2.6c1.6,3,2.4,6.3,2.4,9.7v31.5c0,2.7,2,4.7,4.7,4.7
		c2.7,0,4.8-2,4.8-4.7v-29.6c0-2,0.5-4,1.4-5.7c1.8-3.4,4.7-5,9.3-5c4.5,0,7.5,1.6,9.2,4.9c0.9,1.8,1.4,3.7,1.5,5.7v29.7
		c0,2.7,2,4.7,4.7,4.7s4.7-2,4.7-4.7v-29.6c0-3.3-0.8-6.7-2.5-9.9C259.7,203.2,253.6,199.7,245.5,199.7L245.5,199.7z M343.8,255.4
		c5.7,0,10.4-1.7,13.8-5c0.5,0.8,1,1.5,1.6,2.2c0,0,0.4,0.4,0.5,0.6c0.8,0.7,1.8,1,2.8,1c2.5,0,4.6-2.1,4.6-4.6c0-1-0.5-2-0.8-2.6
		c-1.6-3-2.4-6.3-2.4-9.7v-31.5c0-2.7-2-4.7-4.7-4.7c-2.7,0-4.8,2-4.8,4.7v29.6c0,2-0.5,4-1.4,5.7c-1.8,3.4-4.7,5-9.3,5
		c-4.5,0-7.5-1.6-9.2-4.9c-0.9-1.8-1.4-3.7-1.5-5.7v-29.7c0-2.7-2-4.7-4.7-4.7c-2.7,0-4.7,2-4.7,4.7v29.6c0,3.3,0.8,6.7,2.5,9.9
		C329.6,251.9,335.7,255.4,343.8,255.4C343.8,255.4,343.8,255.4,343.8,255.4z M316.5,246.9c-1.6-3-2.4-6.3-2.5-9.7v-48.8
		c0-2.7-2-4.7-4.7-4.7c-2.7,0-4.7,2-4.7,4.7v14.1c-3-1.8-6.6-2.7-10.7-2.7c-8.2,0-14.2,3.5-17.6,10.2c-1.7,3.3-2.6,6.6-2.6,10v15.4
		c0,3.3,0.9,6.7,2.5,9.9c3.4,6.7,9.4,10.2,17.6,10.2c5.7,0,10.4-1.7,13.8-5c0.3,0.6,0.7,1.2,1.1,1.7c0.1,0.2,0.2,0.3,0.4,0.5
		c0.2,0.2,0.5,0.5,0.6,0.6c0.8,0.7,1.8,1,2.9,1c2.6,0,4.6-2.1,4.6-4.6C317.4,248.6,316.8,247.5,316.5,246.9L316.5,246.9z
		 M304.6,235.2c0,2-0.5,4-1.5,5.7c-1.7,3.4-4.7,4.9-9.3,4.9s-7.5-1.6-9.2-4.9c-1-1.8-1.5-3.7-1.5-5.7v-15.4c0-2,0.5-4,1.4-5.7
		c1.8-3.4,4.7-5,9.3-5c4.5,0,7.5,1.6,9.2,4.9c0.9,1.8,1.4,3.8,1.5,5.8L304.6,235.2L304.6,235.2z"/>
</g>
</svg>
