<?xml version="1.0" encoding="utf-8"?>
<!-- Generator: Adobe Illustrator 26.0.3, SVG Export Plug-In . SVG Version: 6.00 Build 0)  -->
<svg version="1.0" id="katman_1" xmlns="http://www.w3.org/2000/svg" xmlns:xlink="http://www.w3.org/1999/xlink" x="0px" y="0px"
	 viewBox="0 0 212 168" style="enable-background:new 0 0 212 168;" xml:space="preserve">
<style type="text/css">
	.st0{fill:#6E7B8D;}
	.st1{fill:#223551;}
	.st2{fill:#FCBE46;}
	.st3{fill-rule:evenodd;clip-rule:evenodd;fill:#E84039;}
</style>
<path d="M57.3,73.9c-0.5,0-1-0.1-1.5-0.2c-0.5-0.1-0.8-0.3-1.1-0.5l0.5-1.1c0.3,0.2,0.6,0.4,1,0.5c0.4,0.1,0.8,0.2,1.1,0.2
	c0.4,0,0.7-0.1,0.9-0.2c0.2-0.1,0.3-0.3,0.3-0.5c0-0.2-0.1-0.3-0.2-0.4c-0.1-0.1-0.3-0.2-0.5-0.2c-0.2-0.1-0.4-0.1-0.8-0.2
	c-0.5-0.1-0.9-0.2-1.2-0.3c-0.3-0.1-0.6-0.3-0.8-0.6c-0.2-0.3-0.3-0.6-0.3-1c0-0.4,0.1-0.7,0.3-1c0.2-0.3,0.5-0.5,0.9-0.7
	c0.4-0.2,0.9-0.3,1.5-0.3c0.4,0,0.8,0,1.2,0.1c0.4,0.1,0.7,0.2,1,0.4L59.3,69c-0.6-0.3-1.2-0.5-1.8-0.5c-0.4,0-0.7,0.1-0.9,0.2
	c-0.2,0.1-0.3,0.3-0.3,0.5c0,0.2,0.1,0.4,0.3,0.5c0.2,0.1,0.6,0.2,1.1,0.3c0.5,0.1,0.9,0.2,1.2,0.3c0.3,0.1,0.6,0.3,0.8,0.5
	c0.2,0.3,0.3,0.6,0.3,1c0,0.4-0.1,0.7-0.3,1c-0.2,0.3-0.5,0.5-0.9,0.7C58.4,73.8,57.9,73.9,57.3,73.9z"/>
<path d="M64.1,73.5c-0.1,0.1-0.3,0.2-0.5,0.2c-0.2,0-0.4,0.1-0.6,0.1c-0.6,0-1-0.1-1.4-0.4c-0.3-0.3-0.5-0.7-0.5-1.3v-2h-0.8V69h0.8
	v-1.2h1.4V69h1.2v1.1h-1.2v2c0,0.2,0.1,0.4,0.2,0.5c0.1,0.1,0.3,0.2,0.5,0.2c0.2,0,0.4-0.1,0.6-0.2L64.1,73.5z"/>
<path d="M66.9,68.8c0.8,0,1.3,0.2,1.8,0.5c0.4,0.4,0.6,0.9,0.6,1.6v2.8h-1.3v-0.6c-0.3,0.5-0.8,0.7-1.5,0.7c-0.4,0-0.7-0.1-1-0.2
	c-0.3-0.1-0.5-0.3-0.6-0.5c-0.1-0.2-0.2-0.5-0.2-0.8c0-0.5,0.2-0.8,0.5-1.1c0.3-0.3,0.9-0.4,1.6-0.4h1.1c0-0.3-0.1-0.5-0.3-0.7
	c-0.2-0.2-0.5-0.3-0.9-0.3c-0.3,0-0.5,0-0.8,0.1c-0.2,0.1-0.5,0.2-0.6,0.3l-0.5-1c0.3-0.2,0.6-0.3,1-0.4
	C66.1,68.8,66.5,68.8,66.9,68.8z M66.8,72.9c0.2,0,0.5-0.1,0.6-0.2c0.2-0.1,0.3-0.3,0.4-0.5v-0.5h-1c-0.6,0-0.9,0.2-0.9,0.6
	c0,0.2,0.1,0.3,0.2,0.4C66.4,72.8,66.6,72.9,66.8,72.9z"/>
<path d="M73,73.9c-0.5,0-1-0.1-1.4-0.3c-0.4-0.2-0.7-0.5-1-0.9c-0.2-0.4-0.3-0.8-0.3-1.3s0.1-0.9,0.3-1.3c0.2-0.4,0.6-0.7,1-0.9
	c0.4-0.2,0.9-0.3,1.4-0.3c0.5,0,1,0.1,1.4,0.3c0.4,0.2,0.7,0.5,0.9,0.9l-1.1,0.6C73.8,70.2,73.5,70,73,70c-0.4,0-0.7,0.1-0.9,0.4
	c-0.2,0.2-0.4,0.6-0.4,1s0.1,0.8,0.4,1c0.2,0.2,0.6,0.4,0.9,0.4c0.5,0,0.9-0.2,1.1-0.7l1.1,0.6c-0.2,0.4-0.5,0.7-0.9,0.9
	C74,73.7,73.5,73.9,73,73.9z"/>
<path d="M78.1,71.9l-0.7,0.7v1.3H76V67h1.4v3.8l2.1-2h1.7l-2,2.1l2.2,2.8h-1.7L78.1,71.9z"/>
<path d="M65.7,87.5c0.9,0.3,1.5,0.8,2,1.4c0.5,0.6,0.8,1.5,0.8,2.4c0,1.3-0.5,2.4-1.5,3.1c-1,0.7-2.5,1.1-4.5,1.1h-7.7V80.1H62
	c1.8,0,3.2,0.4,4.2,1.1c1,0.7,1.5,1.7,1.5,2.9c0,0.8-0.2,1.4-0.5,2C66.8,86.7,66.3,87.2,65.7,87.5z M57.6,82.3v4.3h4.1
	c1,0,1.8-0.2,2.3-0.5c0.5-0.4,0.8-0.9,0.8-1.6c0-0.7-0.3-1.2-0.8-1.6c-0.5-0.4-1.3-0.6-2.3-0.6H57.6z M62.2,93.3
	c2.2,0,3.3-0.7,3.3-2.2c0-1.5-1.1-2.2-3.3-2.2h-4.6v4.5H62.2z"/>
<path d="M71.3,83.7h2.8v11.8h-2.8V83.7z M72.7,81.8c-0.5,0-0.9-0.2-1.3-0.5c-0.3-0.3-0.5-0.7-0.5-1.2c0-0.5,0.2-0.9,0.5-1.2
	c0.3-0.3,0.8-0.5,1.3-0.5c0.5,0,0.9,0.2,1.3,0.5c0.3,0.3,0.5,0.7,0.5,1.1c0,0.5-0.2,0.9-0.5,1.2C73.6,81.6,73.2,81.8,72.7,81.8z"/>
<path d="M89.3,79.1v16.4h-2.7V94c-0.5,0.6-1,1-1.7,1.3c-0.7,0.3-1.4,0.4-2.2,0.4c-1.1,0-2.2-0.3-3.1-0.8c-0.9-0.5-1.6-1.2-2.1-2.1
	c-0.5-0.9-0.8-2-0.8-3.2s0.3-2.3,0.8-3.2c0.5-0.9,1.2-1.6,2.1-2.1c0.9-0.5,1.9-0.8,3.1-0.8c0.8,0,1.5,0.1,2.1,0.4
	c0.6,0.3,1.2,0.7,1.7,1.2v-6.1H89.3z M83,93.3c0.7,0,1.3-0.1,1.8-0.4c0.5-0.3,1-0.7,1.3-1.3c0.3-0.6,0.5-1.2,0.5-1.9
	s-0.2-1.4-0.5-1.9c-0.3-0.6-0.7-1-1.3-1.3c-0.5-0.3-1.1-0.5-1.8-0.5c-0.7,0-1.3,0.2-1.8,0.5c-0.5,0.3-1,0.7-1.3,1.3
	c-0.3,0.6-0.5,1.2-0.5,1.9s0.2,1.4,0.5,1.9c0.3,0.6,0.7,1,1.3,1.3C81.8,93.2,82.4,93.3,83,93.3z"/>
<path d="M107.4,95.6l0-10.3l-5.1,8.5H101l-5.1-8.4v10.1h-2.7V80.1h2.4l6.2,10.3l6-10.3h2.4l0,15.5H107.4z"/>
<path d="M118.5,83.6c1.7,0,3.1,0.4,4,1.3c0.9,0.8,1.4,2.1,1.4,3.8v6.9h-2.6v-1.4c-0.3,0.5-0.8,0.9-1.5,1.2c-0.6,0.3-1.4,0.4-2.3,0.4
	c-0.9,0-1.7-0.1-2.3-0.4c-0.7-0.3-1.2-0.7-1.5-1.3c-0.4-0.5-0.5-1.2-0.5-1.8c0-1.1,0.4-1.9,1.2-2.5c0.8-0.6,2-1,3.7-1h3.1v-0.2
	c0-0.8-0.3-1.5-0.8-1.9c-0.5-0.4-1.2-0.7-2.2-0.7c-0.7,0-1.3,0.1-2,0.3c-0.6,0.2-1.2,0.5-1.6,0.9l-1.1-2c0.6-0.5,1.4-0.8,2.2-1.1
	C116.6,83.7,117.6,83.6,118.5,83.6z M118.2,93.7c0.7,0,1.3-0.2,1.8-0.5c0.5-0.3,0.9-0.8,1.2-1.4v-1.4h-2.9c-1.6,0-2.4,0.5-2.4,1.6
	c0,0.5,0.2,0.9,0.6,1.2C116.9,93.5,117.5,93.7,118.2,93.7z"/>
<path d="M133,95.7c-1.2,0-2.3-0.3-3.3-0.8c-1-0.5-1.7-1.2-2.3-2.1c-0.5-0.9-0.8-2-0.8-3.1c0-1.2,0.3-2.2,0.8-3.1
	c0.5-0.9,1.3-1.6,2.3-2.1c1-0.5,2.1-0.8,3.3-0.8c1.2,0,2.2,0.2,3.1,0.7c0.9,0.5,1.6,1.2,2,2l-2.1,1.2c-0.3-0.5-0.8-1-1.3-1.2
	c-0.5-0.3-1.1-0.4-1.7-0.4c-1,0-1.9,0.3-2.6,1c-0.7,0.7-1,1.6-1,2.7c0,1.1,0.3,2,1,2.7c0.7,0.7,1.5,1,2.6,1c0.6,0,1.2-0.1,1.7-0.4
	c0.5-0.3,0.9-0.7,1.3-1.2l2.1,1.2c-0.5,0.9-1.1,1.6-2,2.1C135.2,95.5,134.1,95.7,133,95.7z"/>
<path d="M147,83.6c1.5,0,2.7,0.4,3.6,1.3c0.9,0.9,1.4,2.2,1.4,3.9v6.8h-2.8v-6.4c0-1-0.2-1.8-0.7-2.3c-0.5-0.5-1.2-0.8-2.1-0.8
	c-1,0-1.8,0.3-2.4,0.9c-0.6,0.6-0.9,1.5-0.9,2.6v6h-2.8V79.1h2.8v6c0.5-0.5,1-0.9,1.7-1.1C145.5,83.7,146.2,83.6,147,83.6z"/>
<path d="M155.5,83.7h2.8v11.8h-2.8V83.7z M156.9,81.8c-0.5,0-0.9-0.2-1.3-0.5c-0.3-0.3-0.5-0.7-0.5-1.2c0-0.5,0.2-0.9,0.5-1.2
	c0.3-0.3,0.8-0.5,1.3-0.5c0.5,0,0.9,0.2,1.3,0.5c0.3,0.3,0.5,0.7,0.5,1.1c0,0.5-0.2,0.9-0.5,1.2C157.8,81.6,157.4,81.8,156.9,81.8z"
	/>
<path d="M168.6,83.6c1.5,0,2.7,0.4,3.6,1.3c0.9,0.9,1.4,2.2,1.4,3.9v6.8h-2.8v-6.4c0-1-0.2-1.8-0.7-2.3c-0.5-0.5-1.2-0.8-2.1-0.8
	c-1,0-1.8,0.3-2.4,0.9c-0.6,0.6-0.9,1.5-0.9,2.6v6h-2.8V83.7h2.6v1.5c0.5-0.5,1-1,1.7-1.2C166.9,83.7,167.7,83.6,168.6,83.6z"/>
<path d="M188.2,89.7c0,0.2,0,0.5,0,0.8h-9.3c0.2,0.9,0.6,1.6,1.3,2.1c0.7,0.5,1.5,0.8,2.6,0.8c1.3,0,2.4-0.4,3.2-1.3l1.5,1.7
	c-0.5,0.6-1.2,1.1-2,1.4c-0.8,0.3-1.7,0.5-2.7,0.5c-1.3,0-2.4-0.3-3.4-0.8c-1-0.5-1.8-1.2-2.3-2.1c-0.5-0.9-0.8-2-0.8-3.1
	c0-1.2,0.3-2.2,0.8-3.1c0.5-0.9,1.3-1.7,2.2-2.2c0.9-0.5,2-0.8,3.1-0.8c1.2,0,2.2,0.3,3.1,0.8c0.9,0.5,1.6,1.2,2.1,2.1
	C188,87.4,188.2,88.5,188.2,89.7z M182.3,85.8c-0.9,0-1.6,0.3-2.3,0.8c-0.6,0.5-1,1.2-1.1,2.1h6.7c-0.1-0.9-0.5-1.5-1.1-2.1
	C183.9,86.1,183.2,85.8,182.3,85.8z"/>
<path class="st0" d="M32.9,89.3h-9.3v9.3h9.3V89.3z"/>
<path class="st1" d="M46.9,94.1l-6.1-6.1l-6.1,6.1l6.1,6.1L46.9,94.1z"/>
<path class="st2" d="M43.5,76.9h-5.7c-1,0-1.8,0.8-1.8,1.8v5.7c0,1,0.8,1.8,1.8,1.8h5.7c1,0,1.8-0.8,1.8-1.8v-5.7
	C45.3,77.7,44.5,76.9,43.5,76.9z"/>
<path class="st3" d="M28.2,76.3c2.9,0,5.2,2.3,5.2,5.2c0,2.9-2.3,5.2-5.2,5.2c-2.9,0-5.2-2.3-5.2-5.2C23,78.7,25.3,76.3,28.2,76.3z"
	/>
</svg>
