<?xml version="1.0" encoding="utf-8"?>
<!-- Generator: Adobe Illustrator 26.0.3, SVG Export Plug-In . SVG Version: 6.00 Build 0)  -->
<svg version="1.0" id="katman_1" xmlns="http://www.w3.org/2000/svg" xmlns:xlink="http://www.w3.org/1999/xlink" x="0px" y="0px"
	 viewBox="0 0 600 450" style="enable-background:new 0 0 600 450;" xml:space="preserve">
<style type="text/css">
	.st0{clip-path:url(#SVGID_00000160892398912562373200000009155922030317528984_);}
	.st1{fill-rule:evenodd;clip-rule:evenodd;fill:#221F20;}
	.st2{fill-rule:evenodd;clip-rule:evenodd;fill:#E9531D;}
</style>
<g>
	<defs>
		<rect id="SVGID_1_" x="66.6" y="123.8" width="467" height="203.3"/>
	</defs>
	<clipPath id="SVGID_00000132061917325331359490000007443288108842432170_">
		<use xlink:href="#SVGID_1_"  style="overflow:visible;"/>
	</clipPath>
	<g style="clip-path:url(#SVGID_00000132061917325331359490000007443288108842432170_);">
		<path class="st1" d="M66.6,266.2c3.5,2.5,7.2,4.6,11.1,6.3c3.1,1.3,6.4,2,9.8,2.1c3.5,0.1,6.9-1,9.6-3.2c1.2-1,2.2-2.3,2.8-3.7
			c0.6-1.4,0.9-3,0.9-4.6c0-2.7-0.8-5.4-2.4-7.6c-2.5-2.9-5.4-5.4-8.6-7.4l-5.6-3.7c-4.7-2.8-8.9-6.5-12.2-10.8
			c-2.4-3.6-3.7-7.9-3.7-12.3c-0.1-2.9,0.4-5.8,1.5-8.5s2.7-5.1,4.8-7.1c4.5-4.1,10.5-6.3,16.5-6c3.2,0,6.5,0.4,9.6,1.2
			c3.3,0.9,6.4,2.1,9.4,3.7l-0.4,13.1c-3.1-1.9-6.5-3.5-9.9-4.9c-2.5-1-5.1-1.5-7.8-1.6c-2.9-0.1-5.8,0.8-8.1,2.5
			c-1,0.8-1.8,1.9-2.3,3.1c-0.5,1.2-0.8,2.5-0.7,3.8c0,2.2,0.7,4.3,2.1,6.1c2.4,2.6,5.1,4.9,8.2,6.7l5.5,3.4
			c6.3,4.1,10.8,8.1,13.5,12.2c1.3,2,2.4,4.1,3,6.4c0.7,2.4,1,4.9,1,7.4c0.1,3.3-0.4,6.6-1.6,9.7c-1.2,3.1-3.1,5.8-5.4,8.1
			c-4.7,4.5-11,6.8-18.9,6.8c-3.6,0-7.1-0.4-10.6-1.2c-3.4-0.8-6.7-2-9.8-3.7L66.6,266.2z"/>
		<path class="st1" d="M125.3,260.4V241h-7.2v-11.5h7.2v-15.6l12-2.5v18.2h12.5V241h-12.5v19.5c0,6.4,0.6,10.9,1.6,13.5
			c1.4,3,3.5,5.6,6.1,7.6l-13.4,1.6c-2.3-1.5-4-3.7-5-6.3c-1-2.6-1.5-7.2-1.5-13.7L125.3,260.4z"/>
		<path class="st1" d="M203.2,266l-1.2,12.3c-1.8,0.8-3.5,1.5-5.1,2.1c-1.6,0.7-3.2,1.1-5,1.6c-2.9,0.8-5.8,1.2-8.8,1.2
			c-3.4,0.1-6.8-0.6-10-1.9s-6-3.4-8.2-5.9c-4.8-5.2-7.2-11.9-7.2-20.1c-0.2-7.3,2.3-14.5,7.2-19.9c2.3-2.6,5.1-4.6,8.2-6
			c3.1-1.4,6.6-2,10-1.9c2.9-0.1,5.9,0.3,8.6,1.4c2.8,1.1,5.3,2.7,7.4,4.7c4,4.1,6.1,9.5,6.1,16.3l-0.2,4.4v0.7l-1.2,2.1l-33.6,1.3
			c0,1.9,0.3,3.8,1,5.6c0.7,1.8,1.8,3.4,3.2,4.7c1.4,1.3,3,2.3,4.8,2.9c1.8,0.6,3.6,0.9,5.5,0.8c2.8,0,5.6-0.5,8.2-1.5
			c1.6-0.6,3.2-1.2,4.7-2C199.3,268.2,201.1,267.2,203.2,266L203.2,266z M170.2,250.8l23.3-1.2v-0.7c0.1-1.4-0.2-2.8-0.7-4.2
			c-0.5-1.3-1.3-2.5-2.3-3.6c-1-1-2.2-1.8-3.5-2.3c-1.3-0.5-2.7-0.7-4.1-0.7c-1.5-0.1-3.1,0.2-4.5,0.8s-2.8,1.4-3.9,2.5
			C172.2,244.1,170.6,247.3,170.2,250.8"/>
		<path class="st1" d="M262.6,266l-1.2,12.3c-1.8,0.8-3.5,1.5-5.1,2.1c-1.6,0.7-3.2,1.1-5,1.6c-2.9,0.8-5.8,1.2-8.8,1.2
			c-3.4,0.1-6.8-0.5-10-1.9c-3.1-1.4-5.9-3.4-8.2-5.9c-4.8-5.2-7.2-11.9-7.2-20.1c-0.2-7.3,2.3-14.5,7.2-19.9c2.3-2.6,5.1-4.6,8.2-6
			c3.1-1.4,6.5-2,9.9-2c2.9-0.1,5.9,0.3,8.6,1.4c2.8,1.1,5.3,2.7,7.4,4.7c4.1,4.1,6.1,9.5,6.1,16.3l-0.1,4.4v0.7l-1.2,2.1l-33.6,1.3
			c0,2,0.3,4,1.1,5.8c0.7,1.7,1.8,3.3,3.1,4.6c1.4,1.3,3,2.3,4.8,2.9c1.8,0.6,3.6,0.9,5.5,0.8c2.8,0,5.6-0.5,8.2-1.5
			c1.6-0.6,3.2-1.2,4.7-2C258.7,268.2,260.5,267.2,262.6,266L262.6,266z M229.6,250.9l23.3-1.2V249c0.1-1.4-0.2-2.8-0.7-4.2
			c-0.5-1.3-1.3-2.5-2.3-3.6c-1-1-2.2-1.8-3.5-2.3c-1.3-0.5-2.7-0.7-4.1-0.7c-1.5-0.1-3.1,0.2-4.5,0.8c-1.4,0.6-2.8,1.4-3.9,2.5
			C231.6,244.1,230,247.4,229.6,250.9"/>
		<path class="st1" d="M286.4,279.2h-12.1v-77.4l12.1-2.3V279.2z"/>
		<path class="st1" d="M300.1,243.4c-0.1-5.8,0.9-11.6,2.8-17.1c1.8-5.2,4.7-10.1,8.3-14.3c3.4-3.9,7.5-7,12.1-9.2
			c4.5-2.1,9.4-3.3,14.3-3.3c5,0,9.9,1.1,14.3,3.3c4.7,2.2,8.9,5.4,12.3,9.4c3.6,4.1,6.4,9,8.2,14.2c1.9,5.5,2.8,11.2,2.8,17
			c0,4.9-0.6,9.8-1.9,14.5c-1.2,4.4-3.2,8.6-5.7,12.4c-3.4,5.1-7.9,9.4-13.2,12.4c-4.7,2.7-10,4.2-15.3,4.4
			c-5.4,0.2-10.8-0.9-15.6-3.2c-4.7-2.2-8.9-5.4-12.2-9.3c-3.6-4.2-6.5-9-8.3-14.2c-0.9-2.7-1.6-5.4-2.1-8.2
			C300.4,249.3,300.1,246.4,300.1,243.4L300.1,243.4z M309.4,243.4c0,9.9,2.7,18.2,8.2,24.8c2.4,3.1,5.4,5.6,8.9,7.4
			c3.5,1.7,7.4,2.6,11.3,2.6c7.9,0,14.6-3.3,20.1-9.9c5.5-6.6,8.2-14.9,8.2-24.8c0-9.9-2.7-18.2-8.1-24.8c-2.4-3.1-5.4-5.6-8.9-7.3
			c-3.5-1.7-7.3-2.6-11.2-2.6s-7.7,0.9-11.2,2.6c-3.5,1.7-6.6,4.2-8.9,7.3C312.1,225.2,309.4,233.4,309.4,243.4z"/>
		<path class="st1" d="M395.9,279.2h-8.7v-46.3h8.6v7c2.6-2.7,5.7-4.8,9.1-6.4c3.2-1.4,6.6-2.2,10.1-2.1v8.3c-3-0.1-6,0.4-8.9,1.3
			c-2.2,0.7-4.2,1.8-5.9,3.3c-2.8,2.5-4.2,6.6-4.2,12.5L395.9,279.2z"/>
		<path class="st1" d="M426.2,275.9l-7.3,3.3v-77.5l8.6-2.3v33.8c2.3-1.8,4.9-3.2,7.7-4.1c2.8-0.9,5.7-1.3,8.6-1.3
			c3-0.1,6.1,0.5,8.8,1.7c2.8,1.2,5.3,3,7.3,5.3c4.3,4.9,6.6,11.2,6.4,17.8c0,7.9-2.4,14.3-7.2,19.2c-4.8,4.9-11.2,7.3-19.2,7.3
			c-2.4,0-4.7-0.2-7-0.8C430.5,277.8,428.3,277,426.2,275.9L426.2,275.9z M427.4,269.4c2,1,4.2,1.8,6.4,2.4c1.9,0.5,4,0.8,6,0.8
			c2.4,0.1,4.8-0.3,7-1.3c2.2-0.9,4.2-2.3,5.9-4.1c3.1-3.9,4.8-8.7,4.9-13.7s-1.4-9.9-4.3-13.9c-1.4-1.7-3.2-3-5.2-3.9
			c-2-0.9-4.2-1.3-6.3-1.2c-2.5,0-4.9,0.6-7.1,1.6c-2.6,1.2-5.1,2.9-7.2,4.9V269.4z"/>
		<path class="st1" d="M487.7,279.2h-11v-50.3l11-2.4V279.2z M474.3,210.2c0-0.9,0.2-1.8,0.6-2.6c0.4-0.8,0.9-1.6,1.7-2.1
			c1.6-1.3,3.5-2,5.6-2c2.1-0.1,4.1,0.6,5.7,2c0.7,0.6,1.3,1.3,1.7,2.1c0.4,0.8,0.6,1.7,0.6,2.7c0,0.9-0.2,1.8-0.6,2.6
			c-0.4,0.8-1,1.5-1.7,2.1c-1.6,1.3-3.6,2-5.7,1.9c-2,0-4-0.6-5.5-1.9c-0.7-0.6-1.3-1.3-1.7-2.1C474.5,212,474.3,211.1,474.3,210.2
			L474.3,210.2z"/>
		<path class="st1" d="M499.1,268.1c2.8,2.3,5.9,4.1,9.2,5.6c2.5,1.2,5.3,1.9,8.1,2c2.3,0.1,4.5-0.6,6.3-2c0.8-0.6,1.4-1.4,1.8-2.3
			c0.4-0.9,0.6-1.9,0.6-2.8c0-3.3-2.9-6.3-8.7-9l-0.5-0.2l-4.5-2c-4.7-2.1-8-4.2-9.7-6.4c-1.8-2.4-2.8-5.4-2.6-8.5
			c-0.1-2,0.2-4.1,0.9-6c0.7-1.9,1.8-3.6,3.2-5.1c1.5-1.4,3.3-2.5,5.2-3.2c1.9-0.7,4-1,6-0.9c1.4,0,2.7,0.1,4.1,0.3
			c1.4,0.2,2.8,0.6,4.1,1c3,1,5.9,2.4,8.5,4.1l-1.7,7.9c-2.4-1.9-5.1-3.5-7.9-4.7c-1.2-0.5-2.3-0.9-3.6-1.2
			c-1.1-0.3-2.2-0.4-3.4-0.4c-2-0.1-3.9,0.5-5.5,1.8c-0.7,0.6-1.2,1.3-1.6,2.1c-0.4,0.8-0.5,1.7-0.5,2.6c-0.1,1.7,0.5,3.3,1.6,4.5
			c1,1.2,3.7,2.7,8,4.4l3.9,1.6c3.8,1.4,7.2,3.7,10,6.6c2.1,2.6,3.2,5.8,3.1,9.2c0.1,2.1-0.3,4.3-1.1,6.3c-0.8,2-2,3.8-3.6,5.3
			c-3.5,3-8,4.5-12.6,4.3c-3.3,0-6.5-0.6-9.6-1.7c-3.2-1.2-6.2-2.8-8.8-4.9L499.1,268.1z"/>
		<path class="st2" d="M300.1,156.2c6.5-2.4,13.2-4.5,20.2-6.5c61-17.3,115.5-11.5,121.8,13c6.2,24.5-38.3,58.4-99.3,75.7
			c-7,2-13.8,3.7-20.6,5c50.4-18.4,84.7-47.5,79.2-69.2C395.8,152.4,352.4,145.5,300.1,156.2"/>
		<path class="st2" d="M339.7,147.7c0-4.7,1.4-9.4,4-13.3c2.6-3.9,6.3-7,10.7-8.8c4.3-1.8,9.1-2.3,13.7-1.4
			c4.6,0.9,8.8,3.2,12.2,6.6c3.3,3.3,5.6,7.6,6.5,12.2c0.9,4.6,0.4,9.4-1.4,13.8c-1.8,4.4-4.8,8.1-8.8,10.7c-3.9,2.6-8.5,4-13.2,4
			c-3.1,0-6.2-0.6-9.1-1.8c-2.9-1.2-5.5-3-7.7-5.2c-2.2-2.2-4-4.9-5.1-7.8C340.3,153.9,339.7,150.8,339.7,147.7"/>
		<path class="st1" d="M82.3,325.2c-0.9,0.6-1.8,1-2.8,1.4c-1,0.3-2,0.4-3,0.4c-2.2,0-4.3-0.7-6-2c-1.2-0.9-2.2-2.1-2.8-3.4
			c-0.7-1.4-1-2.9-1-4.4c0-1.3,0.2-2.6,0.7-3.8s1.2-2.3,2.1-3.3c0.9-0.9,2-1.7,3.2-2.2c1.2-0.5,2.5-0.7,3.8-0.7c1,0,2,0.1,2.9,0.4
			c1,0.3,1.9,0.7,2.8,1.3l-0.2,2.3c-0.8-0.6-1.7-1.2-2.7-1.6c-0.4-0.2-0.9-0.3-1.4-0.4c-0.5-0.1-1-0.1-1.5-0.1c-1,0-2,0.2-2.9,0.5
			c-0.9,0.4-1.8,1-2.5,1.7c-0.7,0.8-1.3,1.7-1.6,2.6c-0.4,1-0.5,2-0.5,3.1c0,1,0.1,2.1,0.5,3s0.9,1.9,1.6,2.6
			c0.7,0.7,1.5,1.3,2.4,1.7c0.9,0.4,1.9,0.6,2.9,0.5c1,0,2-0.2,2.9-0.6c1.1-0.5,2.1-1.1,2.9-1.8L82.3,325.2z"/>
		<path class="st1" d="M94.3,317.1c0-1.3,0.2-2.7,0.7-3.9c0.5-1.2,1.2-2.3,2.2-3.2c0.9-0.9,2-1.6,3.2-2.1c2.4-1,5.1-1,7.5,0
			c2.4,1,4.4,2.9,5.4,5.3c0.5,1.2,0.7,2.5,0.7,3.9c0,1.1-0.2,2.2-0.5,3.3c-0.3,1-0.8,2-1.5,2.8c-0.9,1.2-2.1,2.2-3.5,2.8
			c-1.4,0.7-2.9,1-4.4,1c-1.3,0-2.6-0.3-3.8-0.7c-1.2-0.5-2.3-1.2-3.2-2.1c-0.9-0.9-1.7-2-2.2-3.2c-0.2-0.6-0.4-1.2-0.5-1.9
			C94.4,318.4,94.3,317.8,94.3,317.1L94.3,317.1z M96.7,317.1c0,1,0.1,2.1,0.5,3c0.4,1,0.9,1.8,1.6,2.6c0.7,0.7,1.5,1.3,2.4,1.7
			c0.9,0.4,1.9,0.6,2.9,0.6s2-0.2,2.9-0.6c0.9-0.4,1.7-1,2.4-1.7c1.4-1.5,2.2-3.6,2.2-5.6c0-2.1-0.8-4.1-2.2-5.6
			c-0.7-0.7-1.5-1.3-2.4-1.7c-0.9-0.4-1.9-0.6-2.9-0.6s-2,0.2-2.9,0.6c-0.9,0.4-1.7,1-2.4,1.7c-0.7,0.7-1.3,1.6-1.6,2.6
			C96.9,315,96.7,316,96.7,317.1"/>
		<path class="st1" d="M126,326.4v-19.3h0.3l13.2,14.7v-14.1h2.3V327h-0.3l-13.2-14.6v14H126z"/>
		<path class="st1" d="M157.6,326.4v-19.3h0.3l13.2,14.7v-14.1h2.3V327h-0.3l-13.2-14.6v14H157.6z"/>
		<path class="st1" d="M183.7,327v-19.9h11v2H186v6.5h7.5v2H186v7.3h8.8v2.1H183.7z"/>
		<path class="st1" d="M224.7,325.2c-0.9,0.6-1.8,1-2.8,1.4c-1,0.3-2,0.4-3.1,0.4c-1.1,0-2.2-0.2-3.2-0.5c-1-0.3-2-0.8-2.8-1.5
			c-1.2-0.9-2.1-2.1-2.8-3.4c-0.7-1.4-1-2.9-1-4.4c0-1.6,0.4-3.1,1.1-4.5c0.7-1.4,1.7-2.6,3-3.5c1.2-0.9,2.7-1.5,4.2-1.8
			c1.5-0.3,3.1-0.2,4.6,0.3c1,0.3,1.9,0.7,2.8,1.3l-0.3,2.3c-0.8-0.6-1.7-1.2-2.6-1.6c-0.4-0.2-0.9-0.3-1.4-0.4
			c-0.5-0.1-1-0.1-1.5-0.1c-1,0-2,0.2-2.9,0.5c-0.9,0.4-1.8,1-2.5,1.7c-1.4,1.5-2.2,3.6-2.1,5.7c-0.1,2.1,0.7,4.1,2.1,5.6
			c0.7,0.7,1.5,1.3,2.5,1.7c0.9,0.4,1.9,0.6,2.9,0.5c1,0,2.1-0.2,3-0.6c1.1-0.4,2.1-1.1,2.9-1.8L224.7,325.2z"/>
		<path class="st1" d="M243.6,327v-17.8h-6.8v-2.1h15.8v2.1h-6.8V327H243.6z"/>
		<path class="st1" d="M263.3,327h2.4v-19.9h-2.4V327z"/>
		<path class="st1" d="M280.3,326.4v-19.3h0.3l13.2,14.7v-14.1h2.3V327h-0.3l-13.2-14.6v14H280.3z"/>
		<path class="st1" d="M327.8,325.1c-1.4,0.6-2.9,1.1-4.4,1.5c-1.3,0.3-2.6,0.5-3.9,0.5c-3,0.1-5.9-0.9-8.3-2.8
			c-1-0.9-1.9-2-2.4-3.2c-0.6-1.2-0.9-2.6-0.9-3.9s0.3-2.7,0.9-3.9c0.6-1.2,1.4-2.3,2.4-3.2c2.4-1.9,5.3-2.9,8.4-2.8
			c1.3,0,2.5,0.1,3.8,0.4c1.2,0.3,2.3,0.7,3.4,1.2l-0.1,2.3c-1.2-0.6-2.4-1.2-3.6-1.6c-1.1-0.3-2.2-0.5-3.4-0.5
			c-2.3-0.1-4.6,0.7-6.4,2.3c-0.8,0.7-1.5,1.6-1.9,2.6c-0.4,1-0.7,2.1-0.6,3.2c0,1.1,0.2,2.1,0.6,3.1c0.4,1,1.1,1.9,1.9,2.6
			c1.8,1.5,4,2.3,6.3,2.2c0.5,0,0.9,0,1.4,0c0.5-0.1,0.9-0.1,1.4-0.2c1-0.2,2-0.5,2.9-0.9V319h-6.7v-1.9h9.3V325.1z"/>
		<path class="st1" d="M355.5,326.4l3.6-19.3h0.2l6.1,15.2l6.1-15.2h0.2l3.5,19.3h-2.1l-2.3-12.9l-5.4,13.5l-0.3,0l-5.5-13.5
			l-2.4,12.8H355.5z"/>
		<path class="st1" d="M387.2,327l9.8-19.9h0.3L407,327h-2.7l-2.3-4.9h-9.9l-2.3,4.9L387.2,327z M393,320.3h8.1l-4-8.6L393,320.3z"
			/>
		<path class="st1" d="M421.4,317h2.2c1.7,0.1,3.3-0.3,4.8-1c0.5-0.3,0.9-0.7,1.2-1.3c0.3-0.5,0.4-1.1,0.4-1.7
			c0-0.6-0.1-1.2-0.4-1.7c-0.3-0.5-0.7-1-1.2-1.2c-1.6-0.7-3.4-1.1-5.2-0.9h-1.7V317z M418.8,327v-19.9h4.5c2.4-0.2,4.7,0.4,6.8,1.5
			c0.7,0.4,1.3,1.1,1.8,1.8c0.4,0.8,0.6,1.6,0.6,2.5c0,0.7-0.1,1.4-0.4,2c-0.3,0.6-0.6,1.2-1.1,1.7c-1.1,1.1-2.5,1.8-4.1,2l7.7,8.5
			h-3.2l-7.5-8.2h-2.7v8.2L418.8,327z"/>
		<path class="st1" d="M446.6,327v-19.9h2.3v9.6l9.3-9.6l3,0l-9.3,9.6l10.5,10.3l-3.2,0l-10.4-10v10H446.6z"/>
		<path class="st1" d="M472.6,327v-19.9h11v2H475v6.5h7.5v2H475v7.3h8.8v2.1H472.6z"/>
		<path class="st1" d="M500.8,327v-17.8H494v-2.1h15.8v2.1h-6.8V327H500.8z"/>
		<path class="st1" d="M519.5,323c1,0.6,2.1,1.1,3.2,1.5c0.8,0.3,1.7,0.5,2.6,0.5c1.1,0.1,2.2-0.3,3.1-0.9c0.3-0.3,0.6-0.6,0.8-0.9
			c0.2-0.4,0.3-0.8,0.4-1.2c0-0.4,0-0.8-0.2-1.2c-0.1-0.4-0.4-0.8-0.7-1.1c-0.9-0.8-2-1.4-3.1-1.9l-1.5-0.6
			c-1.3-0.5-2.5-1.2-3.4-2.3c-0.7-0.8-1.1-1.9-1.1-3c0-0.7,0.1-1.3,0.4-1.9c0.3-0.6,0.7-1.1,1.2-1.5c1.2-0.9,2.7-1.4,4.2-1.3
			c0.4,0,0.8,0,1.2,0.1c0.4,0.1,0.8,0.1,1.2,0.3c0.8,0.2,1.6,0.5,2.3,0.9v2.4c-0.8-0.6-1.6-1-2.5-1.4c-0.4-0.1-0.8-0.2-1.2-0.3
			c-0.4-0.1-0.8-0.1-1.2-0.1c-0.9,0-1.8,0.2-2.5,0.8c-0.3,0.2-0.6,0.5-0.7,0.9c-0.2,0.3-0.3,0.7-0.3,1.1c0,0.4,0.1,0.7,0.2,1.1
			c0.2,0.3,0.4,0.7,0.6,0.9c0.9,0.7,1.9,1.3,2.9,1.7l1.5,0.6c1.4,0.5,2.6,1.3,3.6,2.4c0.8,0.9,1.2,2.1,1.2,3.3
			c0,0.7-0.1,1.5-0.4,2.1c-0.3,0.7-0.8,1.3-1.3,1.7c-1.3,1-3,1.5-4.6,1.5c-0.9,0-1.9-0.1-2.8-0.3c-1-0.3-2-0.6-2.9-1.1L519.5,323z"
			/>
	</g>
</g>
</svg>
